<svg width="2560" height="1440" xmlns="http://www.w3.org/2000/svg" xmlns:xlink="http://www.w3.org/1999/xlink" overflow="hidden"><defs><filter id="fx0" x="-10%" y="-10%" width="120%" height="120%" filterUnits="userSpaceOnUse" primitiveUnits="userSpaceOnUse"><feComponentTransfer color-interpolation-filters="sRGB"><feFuncR type="discrete" tableValues="0.380392 0.380392"/><feFuncG type="discrete" tableValues="0.847059 0.847059"/><feFuncB type="discrete" tableValues="0.203922 0.203922"/><feFuncA type="linear" slope="0.596078" intercept="0"/></feComponentTransfer><feGaussianBlur stdDeviation="7.33333 7.33853"/></filter><filter id="fx1" x="-10%" y="-10%" width="120%" height="120%" filterUnits="userSpaceOnUse" primitiveUnits="userSpaceOnUse"><feComponentTransfer color-interpolation-filters="sRGB"><feFuncR type="discrete" tableValues="0.6 0.6"/><feFuncG type="discrete" tableValues="1 1"/><feFuncB type="discrete" tableValues="0.384314 0.384314"/><feFuncA type="linear" slope="0.658824" intercept="0"/></feComponentTransfer><feGaussianBlur stdDeviation="6.95935 6.90265"/></filter><filter id="fx2" x="-10%" y="-10%" width="120%" height="120%" filterUnits="userSpaceOnUse" primitiveUnits="userSpaceOnUse"><feComponentTransfer color-interpolation-filters="sRGB"><feFuncR type="discrete" tableValues="0.380392 0.380392"/><feFuncG type="discrete" tableValues="0.847059 0.847059"/><feFuncB type="discrete" tableValues="0.203922 0.203922"/><feFuncA type="linear" slope="0.635294" intercept="0"/></feComponentTransfer><feGaussianBlur stdDeviation="6.66667 6.66667"/></filter><filter id="fx3" x="-10%" y="-10%" width="120%" height="120%" filterUnits="userSpaceOnUse" primitiveUnits="userSpaceOnUse"><feComponentTransfer color-interpolation-filters="sRGB"><feFuncR type="discrete" tableValues="0.423529 0.423529"/><feFuncG type="discrete" tableValues="0.423529 0.423529"/><feFuncB type="discrete" tableValues="0.423529 0.423529"/><feFuncA type="linear" slope="0.635294" intercept="0"/></feComponentTransfer><feGaussianBlur stdDeviation="6.66334 6.67519"/></filter><filter id="fx4" x="-10%" y="-10%" width="120%" height="120%" filterUnits="userSpaceOnUse" primitiveUnits="userSpaceOnUse"><feComponentTransfer color-interpolation-filters="sRGB"><feFuncR type="discrete" tableValues="1 1"/><feFuncG type="discrete" tableValues="1 1"/><feFuncB type="discrete" tableValues="1 1"/><feFuncA type="linear" slope="0.596078" intercept="0"/></feComponentTransfer><feGaussianBlur stdDeviation="7.33333 7.33333"/></filter><clipPath id="clip5"><rect x="0" y="0" width="2560" height="1440"/></clipPath><clipPath id="clip6"><rect x="-7.5" y="-30.5216" width="1292" height="744.027"/></clipPath><clipPath id="clip7"><rect x="0" y="0" width="1254" height="706"/></clipPath><clipPath id="clip8"><rect x="-3.41276" y="-3.58409" width="115.833" height="53.1637"/></clipPath><clipPath id="clip9"><rect x="0" y="0" width="107" height="45"/></clipPath><clipPath id="clip10"><rect x="11.6667" y="11.6667" width="181.667" height="61.6667"/></clipPath><clipPath id="clip11"><rect x="0" y="0" width="203" height="92"/></clipPath><clipPath id="clip12"><rect x="-3.66484" y="-3.33759" width="674.33" height="268.676"/></clipPath><clipPath id="clip13"><rect x="0" y="0" width="667" height="261"/></clipPath><clipPath id="clip14"><rect x="15.5" y="11.5" width="258" height="86"/></clipPath><clipPath id="clip15"><rect x="0" y="0" width="289" height="122"/></clipPath></defs><g clip-path="url(#clip5)"><rect x="0" y="0" width="2560" height="1440" fill="#FFFFFF"/><g clip-path="url(#clip6)" filter="url(#fx0)" transform="matrix(2 0 0 1.99858 96 -44)"><g clip-path="url(#clip7)"><path d="M24.5 9.35351C24.5-11.8599 41.6847-29.0567 62.883-29.0567L1251.12-29.0567C1272.32-29.0567 1289.5-11.8599 1289.5 9.35351L1289.5 643.036C1289.5 664.25 1272.32 681.446 1251.12 681.446L62.883 681.446C41.6847 681.446 24.5 664.25 24.5 643.036Z" stroke="#61D834" stroke-width="4" stroke-opacity="0.776471" fill="#A0C989" fill-rule="evenodd" fill-opacity="0.0941176"/></g></g><path d="M145-34.2339C145-76.6306 179.369-111 221.766-111L2598.23-111C2640.63-111 2675-76.6306 2675-34.2339L2675 1232.23C2675 1274.63 2640.63 1309 2598.23 1309L221.766 1309C179.369 1309 145 1274.63 145 1232.23Z" stroke="#61D834" stroke-width="8" stroke-opacity="0.776471" fill="#A0C989" fill-rule="evenodd" fill-opacity="0.0941176"/><text fill="#434343" font-family="Arial,Arial_MSFontService,sans-serif" font-weight="700" font-size="73" transform="translate(206.596 1216)">Software</text><g clip-path="url(#clip8)" filter="url(#fx1)" transform="matrix(4.98131 0 0 5.02222 101 1136)"><g clip-path="url(#clip9)" transform="translate(-3.55271e-15 2.84217e-14)"><path d="M21.0788 22.4747C21.0788 21.5949 21.7978 20.8817 22.6848 20.8817L84.3152 20.8817C85.2022 20.8817 85.9213 21.5949 85.9213 22.4747L85.9212 22.4747C85.9212 23.3544 85.2021 24.0676 84.3152 24.0676L22.6848 24.0676C21.7978 24.0676 21.0788 23.3544 21.0788 22.4746Z" fill="#82DA54" fill-rule="evenodd"/></g></g><path d="M206 1240C206 1235.58 209.582 1232 214 1232L521 1232C525.419 1232 529 1235.58 529 1240L529 1240C529 1244.42 525.418 1248 521 1248L214 1248C209.582 1248 206 1244.42 206 1240Z" fill="#82DA54" fill-rule="evenodd"/><text fill="#6C6C6C" font-family="Arial,Arial_MSFontService,sans-serif" font-weight="700" font-size="53" transform="translate(206.596 1126)">Architecture Diagram</text><text fill="#434343" font-family="Arial,Arial_MSFontService,sans-serif" font-weight="700" font-size="53" transform="translate(1279.35 1100)">Binary File</text><text fill="#434343" font-family="Arial,Arial_MSFontService,sans-serif" font-weight="700" font-size="53" transform="translate(1314.33 1151)">Storage</text><path d="M1645.55 1106.83 1746.22 1107.58 1746.12 1120.92 1645.45 1120.17ZM1739.65 1094.2 1779.5 1114.5 1739.35 1134.2Z"/><text fill="#434343" font-family="Arial,Arial_MSFontService,sans-serif" font-weight="700" font-size="53" transform="translate(1818.02 1126)">Daily Lighting Status</text><text fill="#434343" font-family="Arial,Arial_MSFontService,sans-serif" font-weight="700" font-size="53" transform="translate(1306.91 181)">Machine</text><text fill="#434343" font-family="Arial,Arial_MSFontService,sans-serif" font-weight="700" font-size="53" transform="translate(1301.61 232)">Learning</text><text fill="#434343" font-family="Arial,Arial_MSFontService,sans-serif" font-weight="700" font-size="53" transform="translate(1322.72 283)">(LSTM)</text><text fill="#434343" font-family="Arial,Arial_MSFontService,sans-serif" font-weight="700" font-size="53" transform="translate(439.712 220)">Gyroscope</text><text fill="#6C6C6C" font-family="Arial,Arial_MSFontService,sans-serif" font-style="italic" font-weight="700" font-size="53" transform="translate(1849.42 144)">Using Recurrent Neural</text><text fill="#6C6C6C" font-family="Arial,Arial_MSFontService,sans-serif" font-style="italic" font-weight="700" font-size="53" transform="translate(1849.42 208)">Network, because it's for</text><text fill="#6C6C6C" font-family="Arial,Arial_MSFontService,sans-serif" font-style="italic" font-weight="700" font-size="53" transform="translate(1849.42 272)">time</text><text fill="#6C6C6C" font-family="Arial,Arial_MSFontService,sans-serif" font-style="italic" font-weight="700" font-size="53" transform="translate(1955.04 272)">-</text><text fill="#6C6C6C" font-family="Arial,Arial_MSFontService,sans-serif" font-style="italic" font-weight="700" font-size="53" transform="translate(1971.82 272)">series data analysis</text><text fill="#434343" font-family="Arial,Arial_MSFontService,sans-serif" font-weight="700" font-size="53" transform="translate(2198.29 631)">Automatic</text><text fill="#434343" font-family="Arial,Arial_MSFontService,sans-serif" font-weight="700" font-size="53" transform="translate(2223.18 682)">Lighting</text><text fill="#434343" font-family="Arial,Arial_MSFontService,sans-serif" font-weight="700" font-size="53" transform="translate(2182.56 733)">Adjustment</text><path d="M965.55 211.834 1066.22 212.585 1066.12 225.918 965.45 225.167ZM1059.65 199.202 1099.5 219.5 1059.35 239.201Z"/><g clip-path="url(#clip10)" filter="url(#fx2)" transform="matrix(3 0 0 3 2002 1107)"><g clip-path="url(#clip11)" transform="translate(-1.13687e-13 0)"><path d="M33.0425 0 22.8481 0 20.959-43.6646 12.6538 0 2.9585 0 13.8657-52.2549 29.1929-52.2549 30.7969-15.6479 48.6191-52.2549 64.1245-52.2549 53.1816 0 43.3794 0 53.6807-43.3438ZM74.9967-52.2549 85.2267-52.2549 83.3019-42.9873 73.0719-42.9873ZM72.0026-37.8545 82.2326-37.8545 74.3195 0 64.0895 0ZM84.3516 0 95.2944-52.2549 105.489-52.2549 94.5815 0ZM141.613-15.7549 115.949-15.7549C115.925-15.3509 115.913-15.042 115.913-14.8281 115.913-12.3092 116.632-10.2775 118.069-8.73291 119.507-7.18831 121.26-6.41602 123.327-6.41602 126.725-6.41602 129.375-8.17448 131.276-11.6914L140.436-10.1587C138.654-6.47542 136.272-3.71297 133.29-1.87134 130.307-0.0297038 126.963 0.891113 123.256 0.891113 118.17 0.891113 114.036-0.718831 110.851-3.93872 107.667-7.15861 106.075-11.4181 106.075-16.7173 106.075-21.8976 107.513-26.5076 110.388-30.5474 114.309-36.0129 119.905-38.7456 127.177-38.7456 131.81-38.7456 135.494-37.3139 138.226-34.4504 140.959-31.587 142.326-27.577 142.326-22.4204 142.326-19.9491 142.088-17.7272 141.613-15.7549ZM132.987-21.9927C133.01-22.4442 133.022-22.7887 133.022-23.0264 133.022-25.8304 132.393-27.9334 131.133-29.3354 129.874-30.7375 128.187-31.4385 126.072-31.4385 123.957-31.4385 122.062-30.6424 120.386-29.0503 118.711-27.4582 117.576-25.1056 116.982-21.9927ZM144.271-10.5864 154.18-12.1548C155.059-10.0636 156.152-8.58439 157.459-7.71704 158.766-6.84969 160.548-6.41602 162.806-6.41602 165.135-6.41602 167-6.9388 168.402-7.98438 169.376-8.69727 169.863-9.56462 169.863-10.5864 169.863-11.2756 169.614-11.8934 169.115-12.4399 168.592-12.9627 167.178-13.6043 164.873-14.3647 158.695-16.4084 154.869-18.0243 153.396-19.2124 151.091-21.0659 149.938-23.4897 149.938-26.4839 149.938-29.478 151.055-32.0563 153.289-34.2188 156.402-37.2367 161.024-38.7456 167.154-38.7456 172.026-38.7456 175.709-37.8545 178.204-36.0723 180.699-34.29 182.28-31.8781 182.945-28.8364L173.499-27.1968C173-28.575 172.192-29.6087 171.075-30.2979 169.555-31.2246 167.725-31.688 165.586-31.688 163.447-31.688 161.909-31.3315 160.97-30.6187 160.031-29.9058 159.562-29.0859 159.562-28.1592 159.562-27.2087 160.037-26.4245 160.988-25.8066 161.582-25.4264 163.495-24.7611 166.727-23.8105 171.717-22.361 175.056-20.9352 176.743-19.5332 179.119-17.5609 180.307-15.1846 180.307-12.4043 180.307-8.81608 178.798-5.70312 175.78-3.06543 172.763-0.427734 168.509 0.891113 163.02 0.891113 157.554 0.891113 153.33-0.112874 150.348-2.12085 147.366-4.12882 145.34-6.95068 144.271-10.5864ZM188.989-30.2622 190.558-37.8545 195.548-37.8545 196.795-43.9141 208.522-50.9717 205.778-37.8545 212.016-37.8545 210.447-30.2622 204.174-30.2622 200.859-14.4004C200.265-11.5251 199.968-9.88542 199.968-9.48145 199.968-8.69727 200.217-8.08537 200.716-7.64575 201.215-7.20614 202.118-6.98633 203.425-6.98633 203.877-6.98633 205.006-7.0695 206.812-7.23584L205.208 0.356445C203.449 0.712891 201.643 0.891113 199.79 0.891113 196.178 0.891113 193.552 0.196045 191.912-1.19409 190.272-2.58423 189.453-4.51497 189.453-6.98633 189.453-8.15072 189.892-10.8359 190.771-15.042L193.944-30.2622ZM212.42-15.7192C212.42-22.7293 214.398-28.3196 218.355-32.49 222.311-36.6604 227.509-38.7456 233.949-38.7456 239.534-38.7456 243.894-37.2069 247.031-34.1296 250.167-31.0523 251.736-26.9116 251.736-21.7075 251.736-15.5767 249.775-10.2775 245.854-5.81006 241.934-1.34261 236.682 0.891113 230.1 0.891113 226.535 0.891113 223.375 0.178223 220.618-1.24756 217.862-2.67334 215.806-4.6932 214.452-7.30713 213.097-9.92106 212.42-12.7251 212.42-15.7192ZM241.577-23.0264C241.577-25.4502 240.87-27.3928 239.456-28.8542 238.042-30.3157 236.219-31.0464 233.985-31.0464 231.775-31.0464 229.814-30.3632 228.104-28.9968 226.393-27.6305 225.062-25.6462 224.111-23.0442 223.161-20.4421 222.686-18.048 222.686-15.8618 222.686-13.1528 223.422-11.0023 224.896-9.41016 226.369-7.81803 228.222-7.02197 230.456-7.02197 233.26-7.02197 235.613-8.222 237.514-10.6221 240.223-14.0202 241.577-18.1549 241.577-23.0264ZM263.812-37.8545 273.507-37.8545 272.509-32.9355C274.933-35.0267 277.196-36.5178 279.299-37.4089 281.402-38.3 283.618-38.7456 285.947-38.7456 289.06-38.7456 291.514-37.8545 293.308-36.0723 295.102-34.29 295.999-31.9256 295.999-28.979 295.999-27.6483 295.607-25.1294 294.823-21.4224L290.367 0 280.137 0 284.628-21.4937C285.294-24.7017 285.626-26.6146 285.626-27.2324 285.626-28.5394 285.24-29.5671 284.468-30.3157 283.696-31.0642 282.62-31.4385 281.242-31.4385 279.745-31.4385 278.082-30.8088 276.252-29.5493 274.422-28.2899 272.984-26.6265 271.939-24.5591 271.178-23.0858 270.323-20.0798 269.372-15.541L266.129 0 255.899 0ZM337.446-15.7549 311.782-15.7549C311.758-15.3509 311.746-15.042 311.746-14.8281 311.746-12.3092 312.465-10.2775 313.903-8.73291 315.34-7.18831 317.093-6.41602 319.16-6.41602 322.558-6.41602 325.208-8.17448 327.109-11.6914L336.27-10.1587C334.487-6.47542 332.105-3.71297 329.123-1.87134 326.141-0.0297038 322.796 0.891113 319.089 0.891113 314.004 0.891113 309.869-0.718831 306.685-3.93872 303.5-7.15861 301.908-11.4181 301.908-16.7173 301.908-21.8976 303.346-26.5076 306.221-30.5474 310.142-36.0129 315.738-38.7456 323.01-38.7456 327.644-38.7456 331.327-37.3139 334.06-34.4504 336.792-31.587 338.159-27.577 338.159-22.4204 338.159-19.9491 337.921-17.7272 337.446-15.7549ZM328.82-21.9927C328.844-22.4442 328.856-22.7887 328.856-23.0264 328.856-25.8304 328.226-27.9334 326.966-29.3354 325.707-30.7375 324.02-31.4385 321.905-31.4385 319.79-31.4385 317.895-30.6424 316.22-29.0503 314.544-27.4582 313.41-25.1056 312.816-21.9927ZM362.54-13.6519 372.343-14.8281C372.747-12.0479 373.477-10.123 374.535-9.05371 375.592-7.98438 377-7.44971 378.759-7.44971 381.087-7.44971 383.018-8.23389 384.551-9.80225 386.084-11.3706 386.85-13.3786 386.85-15.8262 386.85-17.9648 386.232-19.658 384.996-20.9055 383.761-22.1531 382.097-22.7769 380.006-22.7769 379.483-22.7769 378.937-22.7293 378.367-22.6343L380.149-31.1533C380.505-31.1058 380.85-31.082 381.182-31.082 383.915-31.082 385.995-31.7771 387.42-33.1672 388.846-34.5574 389.559-36.4406 389.559-38.8169 389.559-40.5041 389.078-41.8348 388.115-42.8091 387.153-43.7834 385.888-44.2705 384.319-44.2705 382.846-44.2705 381.527-43.7299 380.363-42.6487 379.198-41.5675 378.272-39.7199 377.582-37.106L368.244-38.9595C369.432-42.8091 371.083-45.7676 373.198-47.835 376.406-50.9242 380.351-52.4688 385.032-52.4688 389.832-52.4688 393.48-51.1321 395.975-48.4587 398.47-45.7854 399.718-42.5833 399.718-38.8525 399.718-36.1436 398.922-33.696 397.329-31.5098 395.737-29.3236 393.551-27.7196 390.771-26.6978 392.981-25.5334 394.609-24.0244 395.654-22.1709 396.7-20.3174 397.223-18.3807 397.223-16.3608 397.223-12.5112 395.856-8.97054 393.123-5.73877 389.393-1.31885 384.581 0.891113 378.687 0.891113 374.267 0.891113 370.626-0.374268 367.762-2.90503 364.899-5.43579 363.158-9.01807 362.54-13.6519Z" fill="#60DD36" transform="matrix(0.333333 0 0 0.333333 34.8846 51)"/></g></g><text fill="#60DD36" font-family="Arial,Arial_MSFontService,sans-serif" font-style="italic" font-weight="700" font-size="73" transform="translate(2106.65 1247)">Milestone 3</text><g clip-path="url(#clip12)" filter="url(#fx3)" transform="matrix(3.0015 0 0 2.99617 128 323)"><g clip-path="url(#clip13)"><path d="M21.6558 46.317C21.6558 32.7532 32.6319 21.7575 46.1716 21.7575L620.828 21.7575C634.368 21.7575 645.344 32.7532 645.344 46.317L645.344 214.809C645.344 228.373 634.368 239.369 620.828 239.369L46.1716 239.369C32.6319 239.369 21.6558 228.373 21.6558 214.809Z" stroke="#6C6C6C" stroke-width="3" stroke-opacity="0.972549" fill="#D6D8D8" fill-rule="evenodd" fill-opacity="0.972549"/></g></g><path d="M193 447.584C193 406.945 225.945 374 266.584 374L1991.42 374C2032.06 374 2065 406.945 2065 447.584L2065 952.416C2065 993.055 2032.06 1026 1991.42 1026L266.584 1026C225.945 1026 193 993.055 193 952.416Z" stroke="#6C6C6C" stroke-width="8" stroke-opacity="0.972549" fill="#D6D8D8" fill-rule="evenodd" fill-opacity="0.972549"/><path d="M349.027 670C347.594 670 346.402 671.165 346.402 672.626L346.402 690.916C346.402 692.346 347.558 693.542 349.027 693.542 350.491 693.542 351.646 692.377 351.646 690.916L351.646 672.626C351.646 671.196 350.491 670 349.027 670ZM387.153 682.486C386.488 682.586 385.871 682.945 385.448 683.537L374.664 698.365C373.812 699.523 374.09 701.192 375.251 702.042 376.406 702.892 378.075 702.646 378.928 701.456L389.712 686.635C390.564 685.476 390.316 683.808 389.125 682.958 388.526 682.53 387.819 682.385 387.153 682.486ZM310.895 682.498C310.23 682.391 309.522 682.53 308.923 682.958 307.768 683.808 307.484 685.445 308.337 686.635L319.157 701.456C320.009 702.615 321.636 702.892 322.834 702.042 324.025 701.192 324.273 699.523 323.384 698.365L312.601 683.537C312.177 682.964 311.56 682.605 310.895 682.498ZM349.027 702.816C348.598 702.816 348.181 702.867 347.757 702.879 347.739 702.879 347.727 702.879 347.715 702.879 347.691 702.879 347.666 702.892 347.636 702.892 347.521 702.898 347.412 702.917 347.298 702.923 346.929 702.942 346.566 702.98 346.203 703.011 346.082 703.018 345.967 703.03 345.846 703.043 345.392 703.081 344.927 703.087 344.473 703.15 344.304 703.169 344.141 703.2 343.971 703.219 343.463 703.295 342.973 703.408 342.471 703.496 342.054 703.572 341.625 703.629 341.213 703.723 340.905 703.792 340.602 703.88 340.294 703.956 339.919 704.05 339.55 704.17 339.175 704.271 338.824 704.371 338.461 704.46 338.111 704.573 337.597 704.737 337.083 704.932 336.569 705.121 336.375 705.196 336.188 705.284 335.994 705.36 335.988 705.36 335.982 705.354 335.982 705.36 335.976 705.36 335.976 705.366 335.97 705.366 335.631 705.499 335.28 705.624 334.948 705.769 334.385 706.015 333.835 706.292 333.284 706.569 333.242 706.588 333.2 706.613 333.157 706.632 332.964 706.733 332.764 706.827 332.571 706.928 332.383 707.022 332.202 707.117 332.014 707.217 331.736 707.375 331.464 707.551 331.186 707.715 330.521 708.105 329.867 708.508 329.226 708.936 329.22 708.943 329.22 708.949 329.214 708.949 328.924 709.15 328.615 709.314 328.331 709.522 328.126 709.673 327.944 709.837 327.757 709.994 322.181 714.162 317.778 719.999 315.467 727.101 314.24 730.879 313.726 734.707 313.798 738.46 313.798 738.573 313.816 738.68 313.816 738.793 313.846 739.738 313.883 740.676 313.986 741.608 314.094 742.672 314.27 743.73 314.475 744.794 314.602 745.43 314.796 746.059 314.947 746.689 314.977 746.815 315.02 746.941 315.05 747.073 315.207 747.671 315.304 748.269 315.498 748.867 316.356 751.487 317.505 753.923 318.89 756.177 318.933 756.253 318.981 756.335 319.03 756.41 319.477 757.134 319.955 757.833 320.457 758.513 320.723 758.885 320.995 759.25 321.273 759.609 321.479 759.867 321.691 760.125 321.902 760.377 323.753 762.612 325.876 764.665 328.331 766.447 330.75 768.197 333.333 769.557 335.994 770.609 336.29 770.728 336.587 770.848 336.889 770.961 337.385 771.144 337.875 771.326 338.377 771.484 339.145 771.729 339.925 771.95 340.711 772.138 340.826 772.17 340.941 772.201 341.056 772.227 343.614 772.825 346.281 773.152 349.027 773.152 349.457 773.152 349.874 773.102 350.303 773.089 350.321 773.083 350.346 773.089 350.37 773.089 350.412 773.083 350.455 773.077 350.497 773.077 350.618 773.07 350.733 773.052 350.86 773.045 351.108 773.033 351.362 773.001 351.616 772.982 352.257 772.938 352.898 772.913 353.533 772.831 353.805 772.8 354.077 772.743 354.349 772.705 355.117 772.586 355.886 772.466 356.635 772.302 357.222 772.17 357.803 772 358.389 771.843 358.861 771.71 359.345 771.597 359.811 771.452 360.506 771.232 361.19 770.961 361.873 770.697 362.236 770.552 362.599 770.426 362.95 770.268 363.615 769.985 364.262 769.664 364.915 769.337 364.988 769.299 365.06 769.267 365.139 769.23 365.163 769.217 365.187 769.198 365.211 769.186 365.308 769.135 365.405 769.097 365.496 769.047 365.574 769.009 365.659 768.971 365.732 768.934 365.756 768.915 365.78 768.902 365.81 768.89 366.179 768.688 366.53 768.449 366.893 768.229 367.443 767.907 367.993 767.58 368.526 767.234 368.556 767.208 368.592 767.196 368.622 767.177 368.997 766.925 369.391 766.711 369.759 766.447 370.128 766.182 370.467 765.893 370.818 765.616 371.659 764.954 372.469 764.268 373.237 763.544 373.279 763.5 373.34 763.462 373.382 763.418 373.4 763.399 373.418 763.38 373.437 763.361 374.181 762.65 374.882 761.926 375.547 761.164 375.85 760.818 376.128 760.446 376.418 760.087 376.69 759.754 376.963 759.42 377.223 759.08 377.652 758.513 378.057 757.928 378.456 757.323 380.162 754.754 381.583 751.94 382.581 748.867 382.72 748.427 382.799 747.986 382.92 747.552 383.476 745.593 383.857 743.629 384.063 741.671 384.087 741.413 384.147 741.154 384.166 740.896 384.172 740.884 384.166 740.865 384.166 740.852 384.196 740.474 384.196 740.103 384.208 739.725 384.262 738.737 384.287 737.742 384.25 736.741 384.244 736.564 384.232 736.394 384.22 736.218 384.117 734.059 383.742 731.886 383.228 729.714 383.144 729.355 383.059 728.99 382.962 728.631 382.823 728.121 382.744 727.611 382.581 727.101 382.103 725.634 381.505 724.249 380.851 722.895 380.791 722.757 380.718 722.618 380.652 722.48 380.283 721.73 379.89 721 379.466 720.289 379.231 719.873 378.983 719.47 378.722 719.067 378.475 718.677 378.221 718.293 377.954 717.921 377.531 717.31 377.09 716.719 376.624 716.133 376.503 715.982 376.382 715.837 376.261 715.686 374.398 713.413 372.251 711.329 369.759 709.522 364.201 705.499 357.833 703.377 351.434 702.967 351.319 702.961 351.211 702.93 351.09 702.923 350.908 702.911 350.721 702.904 350.539 702.892 350.455 702.886 350.364 702.886 350.279 702.879 349.862 702.854 349.451 702.816 349.027 702.816ZM286.462 715.144C285.427 715.233 284.502 715.919 284.169 716.964 283.728 718.356 284.478 719.86 285.875 720.301L303.299 725.943C304.696 726.383 306.19 725.634 306.637 724.243 307.109 722.883 306.335 721.39 304.974 720.918L287.508 715.264C287.157 715.151 286.806 715.113 286.462 715.144ZM411.587 715.144C411.242 715.113 410.891 715.151 410.541 715.264L393.074 720.918C391.677 721.39 390.927 722.851 391.369 724.243 391.846 725.634 393.322 726.383 394.719 725.943L412.174 720.301C413.571 719.823 414.321 718.356 413.879 716.964 413.546 715.919 412.621 715.233 411.587 715.144ZM304.345 749.906C304 749.881 303.65 749.913 303.299 750.026L285.833 755.667C284.435 756.146 283.686 757.613 284.127 759.004 284.605 760.402 286.074 761.145 287.478 760.704L304.932 755.05C306.329 754.578 307.079 753.117 306.637 751.726 306.305 750.681 305.373 749.994 304.345 749.906ZM393.673 749.906C392.639 749.994 391.701 750.681 391.369 751.726 390.927 753.117 391.677 754.61 393.074 755.05L410.541 760.704C411.938 761.145 413.431 760.402 413.879 759.004 414.321 757.613 413.571 756.146 412.174 755.667L394.719 750.026C394.368 749.913 394.018 749.881 393.673 749.906ZM320.868 773.467C320.209 773.574 319.58 773.933 319.157 774.512L308.379 789.334C307.532 790.492 307.799 792.161 308.96 793.011 310.115 793.861 311.79 793.621 312.643 792.431L323.42 777.604C324.273 776.445 324.025 774.777 322.834 773.927 322.235 773.499 321.533 773.36 320.868 773.467ZM377.223 773.467C376.557 773.36 375.844 773.499 375.251 773.927 374.09 774.777 373.812 776.414 374.664 777.604L385.448 792.431C386.301 793.584 387.927 793.861 389.125 793.011 390.28 792.161 390.564 790.492 389.712 789.334L378.928 774.512C378.499 773.933 377.882 773.574 377.223 773.467ZM349.027 782.471C347.594 782.471 346.402 783.623 346.402 785.084L346.402 803.387C346.402 804.816 347.558 806 349.027 806 350.491 806 351.646 804.816 351.646 803.387L351.646 785.084C351.646 783.654 350.491 782.471 349.027 782.471Z" fill="#FFFFFF" fill-rule="evenodd"/><path d="M361.888 448.012C361.229 447.932 360.793 448.236 360.339 449.069 358.497 452.482 356.487 455.821 354.57 459.196 353.86 460.44 353.058 461.049 351.408 460.887 348.533 460.607 345.602 460.632 342.733 461.13 341.432 461.353 340.698 461.024 339.989 459.917 337.817 456.517 335.483 453.228 333.299 449.834 332.689 448.883 332.21 448.758 331.195 449.231 324.598 452.277 317.977 455.298 311.324 458.22 310.111 458.755 310.111 459.314 310.422 460.408 311.511 464.213 312.432 468.061 313.521 471.866 313.876 473.103 313.726 473.923 312.693 474.769 310.384 476.659 308.306 478.828 306.582 481.247 305.661 482.534 304.703 482.645 303.402 482.378 299.593 481.601 295.772 480.917 291.988 480.053 290.769 479.773 290.246 480.034 289.823 481.185 287.327 487.93 284.794 494.662 282.218 501.376 281.788 502.501 281.963 503.061 283.077 503.664 286.493 505.51 289.816 507.518 293.189 509.433 294.453 510.148 295.025 510.956 294.845 512.603 294.534 515.482 294.689 518.41 295.168 521.282 295.386 522.587 295 523.315 293.905 524.017 290.507 526.193 287.209 528.524 283.811 530.7 282.846 531.322 282.772 531.813 283.238 532.814 286.282 539.416 289.294 546.024 292.219 552.67 292.754 553.895 293.314 553.882 294.409 553.571 298.212 552.483 302.058 551.514 305.891 550.506 306.458 550.357 307.036 550.27 307.628 550.152 307.914 550.482 308.15 550.774 308.393 551.047 310.428 553.335 312.631 555.467 315.102 557.245 316.44 558.209 316.676 559.185 316.377 560.609 315.593 564.407 314.903 568.224 314.044 572.004 313.77 573.216 314.019 573.757 315.176 574.179 321.922 576.672 328.656 579.209 335.371 581.782 336.497 582.211 337.057 582.05 337.661 580.931 339.509 577.518 341.507 574.192 343.43 570.822 344.14 569.585 344.918 568.926 346.585 569.107 349.386 569.399 352.267 569.436 355.043 568.883 356.736 568.547 357.464 569.256 358.248 570.456 360.37 573.707 362.604 576.89 364.708 580.16 365.311 581.105 365.784 581.235 366.811 580.763 373.402 577.717 380.017 574.708 386.67 571.786 387.871 571.258 387.908 570.704 387.591 569.598 386.495 565.793 385.581 561.945 384.491 558.134 384.137 556.91 384.267 556.083 385.307 555.237 387.616 553.347 389.694 551.184 391.43 548.766 392.339 547.504 393.273 547.342 394.592 547.616 398.394 548.405 402.222 549.083 406.005 549.941 407.219 550.214 407.754 549.978 408.184 548.822 410.673 542.077 413.212 535.344 415.782 528.63 416.212 527.511 416.056 526.933 414.936 526.33 411.519 524.484 408.196 522.488 404.823 520.573 403.572 519.858 402.975 519.063 403.155 517.397 403.473 514.524 403.311 511.596 402.832 508.724 402.614 507.425 403 506.698 404.101 505.989 407.499 503.813 410.785 501.482 414.183 499.3 415.135 498.691 415.247 498.199 414.78 497.186 411.731 490.59 408.719 483.982 405.794 477.33 405.259 476.118 404.705 476.118 403.609 476.435 399.726 477.535 395.799 478.493 391.916 479.581 390.845 479.885 390.148 479.724 389.42 478.828 387.541 476.503 385.3 474.502 382.898 472.761 381.579 471.797 381.324 470.828 381.622 469.398 382.413 465.599 383.097 461.782 383.956 458.003 384.236 456.784 383.981 456.25 382.824 455.821 376.084 453.334 369.35 450.797 362.629 448.224 362.349 448.118 362.112 448.044 361.888 448.012ZM349 484.168C366.033 484.168 379.843 497.976 379.843 515.003 379.843 532.031 366.033 545.838 349 545.838 331.973 545.838 318.157 532.031 318.157 515.003 318.157 497.976 331.973 484.168 349 484.168Z" fill="#FFFFFF" fill-rule="evenodd"/><text fill="#434343" font-family="Arial,Arial_MSFontService,sans-serif" font-weight="700" font-size="53" transform="translate(455.718 757)">Lux</text><text fill="#434343" font-family="Arial,Arial_MSFontService,sans-serif" font-weight="700" font-size="53" transform="translate(455.718 808)">Sensor</text><text fill="#434343" font-family="Arial,Arial_MSFontService,sans-serif" font-weight="700" font-size="53" transform="translate(454.106 558)">Vibration Sensor</text><text fill="#6C6C6C" font-family="Arial,Arial_MSFontService,sans-serif" font-weight="700" font-size="53" transform="translate(455.718 721)">Lux Data</text><text fill="#6C6C6C" font-family="Arial,Arial_MSFontService,sans-serif" font-weight="700" font-size="53" transform="translate(454.106 498)">0/1 Signal</text><path d="M965.55 753.834 1066.22 754.585 1066.12 767.918 965.45 767.167ZM1059.65 741.202 1099.5 761.5 1059.35 781.201Z"/><path d="M965.5 544.833 1066.17 544.833 1066.17 558.167 965.5 558.167ZM1059.5 531.5 1099.5 551.5 1059.5 571.5Z"/><text fill="#6C6C6C" font-family="Arial,Arial_MSFontService,sans-serif" font-weight="700" font-size="53" transform="translate(882.46 692)">Convolution</text><text fill="#6C6C6C" font-family="Arial,Arial_MSFontService,sans-serif" font-weight="700" font-size="53" transform="translate(886.793 450)">Rising edge</text><text fill="#6C6C6C" font-family="Arial,Arial_MSFontService,sans-serif" font-weight="700" font-size="53" transform="translate(915.24 501)">Detection</text><text fill="#6C6C6C" font-family="Arial,Arial_MSFontService,sans-serif" font-weight="700" font-size="53" transform="translate(267.262 942)">Multithreading</text><text fill="#434343" font-family="Arial,Arial_MSFontService,sans-serif" font-weight="700" font-size="53" transform="translate(1215.96 558)">Motor Reaction</text><text fill="#434343" font-family="Arial,Arial_MSFontService,sans-serif" font-weight="700" font-size="53" transform="translate(1247.91 748)">Current Light</text><text fill="#434343" font-family="Arial,Arial_MSFontService,sans-serif" font-weight="700" font-size="53" transform="translate(1331.55 799)">Status</text><path d="M970.214 831.786 1178.64 1040.22 1169.22 1049.64 960.786 841.214ZM1183.36 1026.07 1197.5 1068.5 1155.07 1054.36Z"/><path d="M1410.17 333.5 1410.17 434.167 1396.83 434.167 1396.83 333.5ZM1423.5 427.5 1403.5 467.5 1383.5 427.5Z"/><path d="M2005.55 662.834 2106.22 663.585 2106.12 676.918 2005.45 676.167ZM2099.65 650.202 2139.5 670.5 2099.35 690.201Z"/><g clip-path="url(#clip14)" filter="url(#fx4)" transform="matrix(2 0 0 2 1467 827)"><g clip-path="url(#clip15)"><path d="M33.0425 0 22.8481 0 20.959-43.6646 12.6538 0 2.9585 0 13.8657-52.2549 29.1929-52.2549 30.7969-15.6479 48.6191-52.2549 64.1245-52.2549 53.1816 0 43.3794 0 53.6807-43.3438ZM74.9967-52.2549 85.2267-52.2549 83.3019-42.9873 73.0719-42.9873ZM72.0026-37.8545 82.2326-37.8545 74.3195 0 64.0895 0ZM84.3516 0 95.2944-52.2549 105.489-52.2549 94.5815 0ZM141.613-15.7549 115.949-15.7549C115.925-15.3509 115.913-15.042 115.913-14.8281 115.913-12.3092 116.632-10.2775 118.069-8.73291 119.507-7.18831 121.26-6.41602 123.327-6.41602 126.725-6.41602 129.375-8.17448 131.276-11.6914L140.436-10.1587C138.654-6.47542 136.272-3.71297 133.29-1.87134 130.307-0.0297038 126.963 0.891113 123.256 0.891113 118.17 0.891113 114.036-0.718831 110.851-3.93872 107.667-7.15861 106.075-11.4181 106.075-16.7173 106.075-21.8976 107.513-26.5076 110.388-30.5474 114.309-36.0129 119.905-38.7456 127.177-38.7456 131.81-38.7456 135.494-37.3139 138.226-34.4504 140.959-31.587 142.326-27.577 142.326-22.4204 142.326-19.9491 142.088-17.7272 141.613-15.7549ZM132.987-21.9927C133.01-22.4442 133.022-22.7887 133.022-23.0264 133.022-25.8304 132.393-27.9334 131.133-29.3354 129.874-30.7375 128.187-31.4385 126.072-31.4385 123.957-31.4385 122.062-30.6424 120.386-29.0503 118.711-27.4582 117.576-25.1056 116.982-21.9927ZM144.271-10.5864 154.18-12.1548C155.059-10.0636 156.152-8.58439 157.459-7.71704 158.766-6.84969 160.548-6.41602 162.806-6.41602 165.135-6.41602 167-6.9388 168.402-7.98438 169.376-8.69727 169.863-9.56462 169.863-10.5864 169.863-11.2756 169.614-11.8934 169.115-12.4399 168.592-12.9627 167.178-13.6043 164.873-14.3647 158.695-16.4084 154.869-18.0243 153.396-19.2124 151.091-21.0659 149.938-23.4897 149.938-26.4839 149.938-29.478 151.055-32.0563 153.289-34.2188 156.402-37.2367 161.024-38.7456 167.154-38.7456 172.026-38.7456 175.709-37.8545 178.204-36.0723 180.699-34.29 182.28-31.8781 182.945-28.8364L173.499-27.1968C173-28.575 172.192-29.6087 171.075-30.2979 169.555-31.2246 167.725-31.688 165.586-31.688 163.447-31.688 161.909-31.3315 160.97-30.6187 160.031-29.9058 159.562-29.0859 159.562-28.1592 159.562-27.2087 160.037-26.4245 160.988-25.8066 161.582-25.4264 163.495-24.7611 166.727-23.8105 171.717-22.361 175.056-20.9352 176.743-19.5332 179.119-17.5609 180.307-15.1846 180.307-12.4043 180.307-8.81608 178.798-5.70312 175.78-3.06543 172.763-0.427734 168.509 0.891113 163.02 0.891113 157.554 0.891113 153.33-0.112874 150.348-2.12085 147.366-4.12882 145.34-6.95068 144.271-10.5864ZM188.989-30.2622 190.558-37.8545 195.548-37.8545 196.795-43.9141 208.522-50.9717 205.778-37.8545 212.016-37.8545 210.447-30.2622 204.174-30.2622 200.859-14.4004C200.265-11.5251 199.968-9.88542 199.968-9.48145 199.968-8.69727 200.217-8.08537 200.716-7.64575 201.215-7.20614 202.118-6.98633 203.425-6.98633 203.877-6.98633 205.006-7.0695 206.812-7.23584L205.208 0.356445C203.449 0.712891 201.643 0.891113 199.79 0.891113 196.178 0.891113 193.552 0.196045 191.912-1.19409 190.272-2.58423 189.453-4.51497 189.453-6.98633 189.453-8.15072 189.892-10.8359 190.771-15.042L193.944-30.2622ZM212.42-15.7192C212.42-22.7293 214.398-28.3196 218.355-32.49 222.311-36.6604 227.509-38.7456 233.949-38.7456 239.534-38.7456 243.894-37.2069 247.031-34.1296 250.167-31.0523 251.736-26.9116 251.736-21.7075 251.736-15.5767 249.775-10.2775 245.854-5.81006 241.934-1.34261 236.682 0.891113 230.1 0.891113 226.535 0.891113 223.375 0.178223 220.618-1.24756 217.862-2.67334 215.806-4.6932 214.452-7.30713 213.097-9.92106 212.42-12.7251 212.42-15.7192ZM241.577-23.0264C241.577-25.4502 240.87-27.3928 239.456-28.8542 238.042-30.3157 236.219-31.0464 233.985-31.0464 231.775-31.0464 229.814-30.3632 228.104-28.9968 226.393-27.6305 225.062-25.6462 224.111-23.0442 223.161-20.4421 222.686-18.048 222.686-15.8618 222.686-13.1528 223.422-11.0023 224.896-9.41016 226.369-7.81803 228.222-7.02197 230.456-7.02197 233.26-7.02197 235.613-8.222 237.514-10.6221 240.223-14.0202 241.577-18.1549 241.577-23.0264ZM263.812-37.8545 273.507-37.8545 272.509-32.9355C274.933-35.0267 277.196-36.5178 279.299-37.4089 281.402-38.3 283.618-38.7456 285.947-38.7456 289.06-38.7456 291.514-37.8545 293.308-36.0723 295.102-34.29 295.999-31.9256 295.999-28.979 295.999-27.6483 295.607-25.1294 294.823-21.4224L290.367 0 280.137 0 284.628-21.4937C285.294-24.7017 285.626-26.6146 285.626-27.2324 285.626-28.5394 285.24-29.5671 284.468-30.3157 283.696-31.0642 282.62-31.4385 281.242-31.4385 279.745-31.4385 278.082-30.8088 276.252-29.5493 274.422-28.2899 272.984-26.6265 271.939-24.5591 271.178-23.0858 270.323-20.0798 269.372-15.541L266.129 0 255.899 0ZM337.446-15.7549 311.782-15.7549C311.758-15.3509 311.746-15.042 311.746-14.8281 311.746-12.3092 312.465-10.2775 313.903-8.73291 315.34-7.18831 317.093-6.41602 319.16-6.41602 322.558-6.41602 325.208-8.17448 327.109-11.6914L336.27-10.1587C334.487-6.47542 332.105-3.71297 329.123-1.87134 326.141-0.0297038 322.796 0.891113 319.089 0.891113 314.004 0.891113 309.869-0.718831 306.685-3.93872 303.5-7.15861 301.908-11.4181 301.908-16.7173 301.908-21.8976 303.346-26.5076 306.221-30.5474 310.142-36.0129 315.738-38.7456 323.01-38.7456 327.644-38.7456 331.327-37.3139 334.06-34.4504 336.792-31.587 338.159-27.577 338.159-22.4204 338.159-19.9491 337.921-17.7272 337.446-15.7549ZM328.82-21.9927C328.844-22.4442 328.856-22.7887 328.856-23.0264 328.856-25.8304 328.226-27.9334 326.966-29.3354 325.707-30.7375 324.02-31.4385 321.905-31.4385 319.79-31.4385 317.895-30.6424 316.22-29.0503 314.544-27.4582 313.41-25.1056 312.816-21.9927ZM378.117-35.9653 368.101-37.4624C368.909-42.3101 370.792-46.023 373.751-48.6013 376.709-51.1796 380.41-52.4688 384.854-52.4688 389.725-52.4688 393.551-51.1499 396.331-48.5122 399.112-45.8745 400.502-42.5239 400.502-38.4604 400.502-36.3931 400.074-34.3197 399.219-32.2405 398.363-30.1612 396.961-27.981 395.013-25.6997 393.611-24.0838 391.317-21.7966 388.133-18.8381 384.949-15.8796 382.84-13.8598 381.806-12.7786 380.773-11.6973 379.78-10.5508 378.83-9.33887L396.937-9.33887 395.013 0 363.253 0C363.586-2.56641 364.34-5.00806 365.517-7.32495 366.693-9.64185 368.16-11.7983 369.919-13.7944 371.677-15.7905 374.897-19.0104 379.578-23.4541 383.095-26.8284 385.317-29.0265 386.244-30.0483 387.907-31.9019 389.048-33.5059 389.666-34.8604 390.284-36.2148 390.593-37.4386 390.593-38.5317 390.593-40.2902 390.076-41.716 389.042-42.8091 388.008-43.9022 386.695-44.4487 385.103-44.4487 383.487-44.4487 382.074-43.8368 380.862-42.613 379.65-41.3892 378.735-39.1733 378.117-35.9653Z" fill="#434343" transform="matrix(0.5 0 0 0.5 44.4573 69)"/></g></g><text fill="#434343" font-family="Arial,Arial_MSFontService,sans-serif" font-style="italic" font-weight="700" font-size="73" transform="translate(1555.91 956)">Milestone 2</text><path d="M1535.31 291.455 1547.4 297.077 1541.78 309.167 1529.69 303.545ZM1559.49 302.699 1571.58 308.321 1565.96 320.411 1553.87 314.789ZM1583.67 313.943 1595.76 319.565 1590.14 331.655 1578.05 326.033ZM1607.85 325.186 1619.94 330.808 1614.32 342.899 1602.23 337.277ZM1632.03 336.43 1644.12 342.052 1638.5 354.142 1626.41 348.521ZM1656.21 347.674 1668.3 353.296 1662.68 365.386 1650.59 359.764ZM1680.39 358.918 1692.48 364.54 1686.86 376.63 1674.77 371.008ZM1704.57 370.162 1716.66 375.784 1711.04 387.874 1698.95 382.252ZM1728.75 381.406 1740.84 387.028 1735.22 399.118 1723.13 393.496ZM1752.93 392.65 1765.02 398.271 1759.4 410.362 1747.31 404.74ZM1777.11 403.893 1789.2 409.515 1783.58 421.605 1771.49 415.984ZM1801.29 415.137 1813.38 420.759 1807.76 432.849 1795.67 427.227ZM1825.47 426.381 1837.56 432.003 1831.94 444.093 1819.85 438.471ZM1849.66 437.625 1861.75 443.247 1856.12 455.337 1844.03 449.715ZM1873.84 448.869 1885.93 454.491 1880.3 466.581 1868.21 460.959ZM1898.02 460.113 1910.11 465.734 1904.48 477.825 1892.39 472.203ZM1922.2 471.356 1934.29 476.978 1928.66 489.068 1916.57 483.447ZM1946.38 482.6 1958.47 488.222 1952.84 500.312 1940.75 494.69ZM1970.56 493.844 1982.65 499.466 1977.02 511.556 1964.93 505.934ZM1994.74 505.088 2006.83 510.71 2001.2 522.8 1989.11 517.178ZM2018.92 516.332 2031.01 521.954 2025.39 534.044 2013.3 528.422ZM2043.1 527.576 2055.19 533.198 2049.57 545.288 2037.48 539.666ZM2067.28 538.819 2079.37 544.441 2073.75 556.532 2061.66 550.91ZM2091.46 550.063 2103.55 555.685 2097.93 567.775 2085.84 562.153ZM2104.66 541.499 2132.5 576.5 2087.8 577.77Z"/><text fill="#434343" font-family="Arial,Arial_MSFontService,sans-serif" font-weight="700" font-size="53" transform="translate(1708.41 343)">As the user’s command</text></g></svg>